<?xml version="1.0" encoding="utf-8"?>
<!-- Generator: Adobe Illustrator 25.2.3, SVG Export Plug-In . SVG Version: 6.00 Build 0)  -->
<svg version="1.1" id="Layer_1" xmlns="http://www.w3.org/2000/svg" xmlns:xlink="http://www.w3.org/1999/xlink" x="0px" y="0px"
	 viewBox="0 0 263.1 54.9" style="enable-background:new 0 0 263.1 54.9;" xml:space="preserve">
<g id="Layer_2_1_">
	<g id="Layer_2-2">
		<path d="M36.7,39h-4.1l-6-12.5H10.2L4.2,39H0L18,1h0.9L36.7,39z M24.9,22.8L18.4,9l-6.5,13.8L24.9,22.8z"/>
		<rect x="37.5" y="0" width="3.7" height="39"/>
		
			<rect x="44.8" y="10.2" transform="matrix(1 -1.047197e-03 1.047197e-03 1 -2.573152e-02 4.880318e-02)" width="3.7" height="28.9"/>
		<path d="M79.8,33.3c0.1,2.9-0.2,5.8-1,8.7c-0.9,2.7-2.8,4.9-5.3,6.2c-2.5,1.3-5.3,1.9-8.1,1.8c-4.8,0-8.6-1.2-11.2-3.8
			c-1.4-1.4-2.5-3.1-3.3-5h3.9c2.1,3.6,5.6,5.5,10.4,5.5c4.8,0,8.1-1.6,9.9-4.9c0.7-1.4,1.1-3.6,1.1-6.7v-1.4
			c-2.7,3.5-6.8,5.5-11.2,5.3c-2.5,0-5-0.6-7.2-1.9c-2.2-1.2-4-3-5.3-5.2c-1.3-2.2-1.9-4.7-1.9-7.2c0-2.6,0.7-5.1,1.9-7.3
			C55,13,59.8,10.2,65,10.1c4.3,0,8,1.9,11.1,5.6v-4.9h3.7L79.8,33.3z M76.3,24.7c0-4.4-1.8-7.6-5.3-9.6c-1.7-1-3.6-1.5-5.5-1.4
			c-2,0-4,0.5-5.7,1.5c-1.7,1-3.2,2.4-4.1,4.1c-1,1.7-1.5,3.7-1.5,5.7c-0.1,2.9,1.1,5.7,3.2,7.7c2.2,2,5,3,7.9,2.9c3,0.1,5.8-1,8-3
			C75.3,30.5,76.4,27.6,76.3,24.7"/>
		<path d="M106.7,39h-3.6V25.6c0.1-2.2-0.1-4.3-0.4-6.5c-0.9-3.7-3.2-5.6-7.1-5.6c-2.2,0-4.2,0.8-5.9,2.2c-1.7,1.4-2.9,3.3-3.4,5.4
			c-0.4,2.5-0.6,5.1-0.5,7.6V39h-3.7V10.9h3.7v5.1c2.9-3.8,6.4-5.8,10.5-5.8c2,0,3.9,0.5,5.5,1.6c1.6,1,2.9,2.5,3.7,4.3
			c0.8,1.8,1.2,4.7,1.2,8.5L106.7,39z"/>
		<path d="M151.6,11.1c0,5.2-2.5,8.4-7.6,9.6c-3.2,0.5-6.4,0.7-9.7,0.6h-2.7V39h-3.8V1h7.6c2.9-0.1,5.9,0.1,8.8,0.6
			c2.2,0.5,4.1,1.7,5.4,3.4C151,6.7,151.7,8.9,151.6,11.1 M147.7,11.1c0-1.2-0.3-2.4-1-3.5c-0.7-1-1.6-1.8-2.7-2.3
			c-1.8-0.6-3.7-0.8-5.6-0.7h-6.7v12.8l6.5,0.1c4.4,0,7.2-1,8.6-3C147.4,13.6,147.7,12.4,147.7,11.1"/>
		<rect x="155.2" y="10.2" width="3.7" height="28.9"/>
		<rect x="110.2" y="22.2" width="14.1" height="3.7"/>
		<polygon points="167.5,39 163.9,39 163.9,0 167.5,0 		"/>
		<polygon points="216.4,10.9 211.1,10.9 211.1,0 207.5,0 207.5,10.9 202.3,10.9 202.3,14.5 207.5,14.5 207.5,54.9 211.1,54.9 
			211.1,14.5 216.4,14.5 		"/>
		<path d="M199.2,38.3h-3.6v-4.7c-2.7,3.4-6.9,5.4-11.3,5.4c-3.9,0.1-7.6-1.5-10.3-4.3c-2.7-2.7-4.2-6.4-4.1-10.2
			c-0.1-3.8,1.5-7.5,4.2-10.1c2.7-2.8,6.4-4.3,10.3-4.2c4.5-0.1,8.7,2.1,11.2,5.8v-5h3.6L199.2,38.3z M195.9,24.8
			c0.1-3-1.1-5.8-3.2-7.9c-2.1-2.2-5-3.3-8-3.2c-4-0.2-7.7,2-9.6,5.5c-2,3.4-2,7.7,0,11.1c2,3.4,5.6,5.6,9.6,5.6
			c2,0,3.9-0.5,5.6-1.5c1.7-0.9,3.1-2.3,4.1-4C195.4,28.6,195.9,26.7,195.9,24.8"/>
		<path d="M245.6,24.9h-25.3c0,2.8,1.1,5.6,3,7.7c2,2.1,4.7,3.3,7.6,3.2c2.8,0.1,5.5-0.9,7.6-2.7c1.2-1.1,2.3-2.5,3.1-3.9l3,1.6
			c-1.6,3.3-4.4,6-7.9,7.3c-1.8,0.6-3.7,1-5.6,0.9c-3.9,0.1-7.7-1.4-10.5-4.1c-2.8-2.7-4.3-6.4-4.1-10.3c0-3.4,1.1-6.7,3.3-9.3
			c2.7-3.4,6.8-5.3,11.1-5.2c4.5-0.2,8.7,1.8,11.5,5.3C244.6,18.2,245.7,21.5,245.6,24.9 M241.6,21.8c-0.7-3.2-2.8-5.9-5.8-7.2
			c-1.5-0.7-3.1-1-4.8-1c-2.6,0-5.1,0.9-7,2.5c-1.6,1.5-2.8,3.5-3.3,5.6L241.6,21.8z"/>
		<path d="M263.1,30.8c0.1,2.2-0.8,4.3-2.5,5.8c-1.6,1.5-3.8,2.4-6.1,2.3c-3.2,0.1-6.3-1.3-8.3-3.9l2.3-2.5c1.8,2,3.8,3,5.9,3
			c1.3,0,2.6-0.5,3.6-1.3c1-0.8,1.6-2,1.6-3.3c0-1.4-0.7-2.7-1.9-3.5c-1.2-0.8-2.4-1.5-3.7-2.1c-1.7-0.8-3.2-1.8-4.6-3.1
			c-1.3-1.3-2-3.1-2-5c0-2,0.8-3.9,2.3-5.2c1.5-1.4,3.5-2.1,5.5-2c2.6,0,5.2,1.2,7.8,3.7l-2.3,2.3c-1.9-1.8-3.8-2.7-5.6-2.7
			c-1.1,0-2.2,0.4-3,1.1c-0.8,0.6-1.3,1.6-1.3,2.7c0,1.8,1.8,3.6,5.4,5.4c1.8,0.8,3.4,1.9,4.8,3.2C262.4,27,263.1,28.9,263.1,30.8"
			/>
		<path d="M51.3,4.7c0-2.5-2-4.5-4.5-4.5c-2.5,0-4.5,2-4.5,4.5c0,2.5,2,4.5,4.5,4.5C49.3,9.2,51.4,7.2,51.3,4.7
			C51.4,4.7,51.4,4.7,51.3,4.7"/>
		<path d="M161.3,4.7c0-2.5-2-4.5-4.5-4.5c-2.5,0-4.5,2-4.5,4.5c0,2.5,2,4.5,4.5,4.5C159.3,9.2,161.3,7.2,161.3,4.7
			C161.3,4.7,161.3,4.7,161.3,4.7"/>
		<path d="M262,5c0,0.7-0.5,1.2-1.1,1.2c-0.7,0-1.2-0.5-1.2-1.1s0.5-1.2,1.1-1.2c0,0,0,0,0,0C261.5,3.8,262,4.4,262,5
			C262,5,262,5,262,5z M260,5c0,0.5,0.4,0.9,0.9,0.9c0,0,0,0,0,0c0.5,0,0.9-0.4,0.9-0.9c0,0,0,0,0,0c0.1-0.5-0.3-0.9-0.8-1
			c-0.5-0.1-0.9,0.3-1,0.8C260,4.9,260,4.9,260,5z M260.7,5.6h-0.3V4.4c0.1,0,0.3,0,0.4,0c0.1,0,0.3,0,0.4,0.1
			c0.1,0.1,0.1,0.2,0.1,0.2c0,0.1-0.1,0.2-0.2,0.3v0c0.1,0,0.2,0.2,0.2,0.3c0,0.1,0,0.2,0.1,0.3h-0.3c-0.1-0.1-0.1-0.2-0.2-0.3
			c0-0.1-0.1-0.2-0.2-0.2h-0.1L260.7,5.6z M260.7,4.9h0.1c0.1,0,0.3,0,0.3-0.2s-0.1-0.2-0.2-0.2h-0.1L260.7,4.9z"/>
	</g>
</g>
</svg>
